<svg xmlns="http://www.w3.org/2000/svg" version="1.1" xmlns:xlink="http://www.w3.org/1999/xlink" xmlns:svgjs="http://svgjs.com/svgjs" width="2014" height="643" preserveAspectRatio="none" viewBox="0 0 2014 643"><g mask="url(&quot;#SvgjsMask2770&quot;)" fill="none"><rect width="2014" height="643" x="0" y="0" fill="url(#SvgjsLinearGradient2771)"></rect><path d="M2114.7 643L0 643 L0 349.76Q178.57 360.49, 167.83333333333334 539.06Q155.25 425.78, 268.53333333333336 413.19Q295.69 339.65, 369.23333333333335 366.8Q486.65 316.38, 537.0666666666667 433.79Q574.11 370.13, 637.7666666666668 407.18Q754.47 356.05, 805.6000000000001 472.76Q876.81 443.27, 906.3000000000002 514.48Q980.41 420.75, 1074.1333333333334 494.86Q1106.36 359.25, 1241.9666666666667 391.48Q1295.35 277.03, 1409.8 330.41Q1506.92 259.7, 1577.6333333333332 356.82Q1667.38 345.87, 1678.3333333333333 435.62Q1753.17 342.62, 1846.1666666666665 417.46Q1858.06 328.65, 1946.8666666666666 340.54Q2045.31 271.15, 2114.7 369.6z" fill="rgba(255, 255, 255, 1)"></path><path d="M2114.7000000000003 643L0 643 L0 523.51Q71.95 427.62, 167.83333333333334 499.57Q286.01 449.91, 335.6666666666667 568.08Q450.95 515.53, 503.5 630.82Q570.46 597.08, 604.2 664.04Q704.19 596.19, 772.0333333333334 696.18Q816.83 573.14, 939.8666666666668 617.93Q1003.46 580.82, 1040.5666666666668 644.41Q1097.52 600.66, 1141.2666666666669 657.61Q1165.34 513.85, 1309.1000000000001 537.92Q1347.12 475.23, 1409.8000000000002 513.25Q1538.95 474.56, 1577.6333333333334 603.71Q1600.88 526.25, 1678.3333333333335 549.5Q1782.58 485.91, 1846.1666666666667 590.15Q1860.56 503.84, 1946.8666666666668 518.24Q2038.89 442.43, 2114.7000000000003 534.45z" fill="rgba(255, 255, 255, 1)"></path></g><defs><mask id="SvgjsMask2770"><rect width="2014" height="643" fill="#ffffff"></rect></mask><linearGradient x1="50%" y1="100%" x2="50%" y2="0%" gradientUnits="userSpaceOnUse" id="SvgjsLinearGradient2771"><stop stop-color="rgba(254, 228, 231, 0.88)" offset="0.04"></stop><stop stop-color="rgba(254, 228, 231, 0.65)" offset="0.86"></stop></linearGradient></defs></svg>