<svg id="visual" viewBox="0 0 400 200" width="400" height="200" xmlns="http://www.w3.org/2000/svg" xmlns:xlink="http://www.w3.org/1999/xlink" version="1.1"><rect x="0" y="0" width="400" height="200" fill="#fff6f7"></rect><path d="M0 136L11.2 135.5C22.3 135 44.7 134 66.8 128.8C89 123.7 111 114.3 133.2 111.3C155.3 108.3 177.7 111.7 200 118.8C222.3 126 244.7 137 266.8 143C289 149 311 150 333.2 151.2C355.3 152.3 377.7 153.7 388.8 154.3L400 155L400 201L388.8 201C377.7 201 355.3 201 333.2 201C311 201 289 201 266.8 201C244.7 201 222.3 201 200 201C177.7 201 155.3 201 133.2 201C111 201 89 201 66.8 201C44.7 201 22.3 201 11.2 201L0 201Z" fill="#FEE4E7" stroke-linecap="round" stroke-linejoin="miter"></path></svg>